<?xml version="1.0" standalone="no"?>
<!DOCTYPE svg PUBLIC "-//W3C//DTD SVG 20010904//EN"
 "http://www.w3.org/TR/2001/REC-SVG-20010904/DTD/svg10.dtd">
<svg version="1.0" xmlns="http://www.w3.org/2000/svg"
 width="640.000000pt" height="640.000000pt" viewBox="0 0 640.000000 640.000000"
 preserveAspectRatio="xMidYMid meet">
<metadata>
Created by potrace 1.16, written by Peter Selinger 2001-2019
</metadata>
<g transform="translate(0.000000,640.000000) scale(0.100000,-0.100000)"
fill="#000000" stroke="none">
<path d="M0 5310 c0 -1063 0 -1090 19 -1090 10 0 21 -6 24 -14 6 -16 -11 -36
-30 -36 -11 0 -13 -381 -13 -2085 l0 -2085 3200 0 3200 0 0 3200 0 3200 -3200
0 -3200 0 0 -1090z m4833 449 c29 -16 37 -28 37 -63 0 -34 -25 -66 -52 -66
-10 0 -18 -4 -18 -10 0 -5 -7 -10 -15 -10 -8 0 -15 6 -15 14 0 7 -7 19 -15 26
-25 21 -19 76 11 99 31 24 37 25 67 10z m-3779 -658 c59 -82 89 -101 130 -79
46 25 97 -42 61 -82 -9 -10 -26 -20 -37 -22 -17 -3 -13 -12 33 -76 28 -41 57
-76 64 -78 6 -3 12 -10 12 -17 0 -7 34 -60 77 -117 74 -101 97 -121 191 -172
22 -11 45 -28 51 -36 8 -10 26 -15 58 -14 36 2 50 -2 64 -19 9 -11 25 -25 36
-31 22 -12 20 -8 -33 67 -20 27 -30 45 -22 41 8 -6 7 1 -4 18 l-17 26 43 0
c24 0 74 -8 110 -18 53 -14 74 -25 99 -54 l33 -37 51 46 c77 69 165 129 242
165 38 17 72 36 76 41 3 6 71 12 150 14 78 3 149 10 156 15 8 7 12 7 12 0 0
-8 103 -12 334 -14 l334 -3 27 -25 c58 -53 55 15 55 -1325 l0 -1235 41 0 c34
0 49 -7 82 -36 80 -73 195 -112 407 -138 382 -48 816 -37 1263 30 l107 16 19
62 19 61 72 3 c65 3 71 1 66 -15 -55 -190 -62 -205 -107 -229 -32 -16 -213
-46 -429 -69 -209 -23 -611 -31 -811 -15 -331 25 -497 60 -617 133 -53 31
-192 167 -192 187 0 6 -11 10 -25 10 l-25 0 -1 195 c-1 107 -3 200 -4 205 -1
6 -3 285 -4 620 -1 589 -2 610 -19 601 -13 -7 -27 -6 -46 4 -24 13 -30 13 -42
1 -14 -14 -50 -11 -60 5 -3 5 -20 -1 -37 -13 -18 -12 -29 -18 -25 -13 5 4 -2
13 -15 20 -18 10 -27 8 -51 -9 -16 -11 -27 -16 -24 -10 4 5 -5 14 -18 21 -13
6 -24 8 -24 5 0 -4 -11 -12 -25 -19 -14 -6 -23 -8 -21 -4 2 3 -7 11 -20 18
-13 6 -24 8 -24 5 0 -4 -11 -12 -25 -19 -14 -6 -23 -8 -21 -4 2 3 -7 11 -20
18 -13 6 -24 7 -24 2 0 -13 -64 -11 -77 2 -7 7 -12 1 -16 -21 -6 -28 -10 -31
-35 -27 l-29 5 -6 -241 c-4 -132 -7 -296 -7 -364 l0 -123 -275 0 c-151 0 -275
2 -275 5 0 2 91 167 201 366 158 283 199 363 188 370 -11 7 -11 9 3 9 9 0 20
5 24 12 5 7 2 9 -8 5 -9 -3 -20 -1 -26 5 -8 8 -15 6 -26 -5 -16 -15 -51 -13
-62 4 -3 5 -20 -1 -37 -13 -18 -12 -29 -18 -25 -13 5 4 -2 13 -15 20 -18 10
-27 8 -51 -9 -16 -11 -27 -16 -24 -10 4 5 -5 14 -18 21 -13 6 -24 8 -24 5 0
-4 -11 -12 -25 -19 -14 -6 -23 -8 -21 -4 2 3 -7 11 -20 18 -13 6 -24 8 -24 5
0 -4 -11 -12 -25 -19 -14 -6 -23 -8 -21 -4 2 3 -7 11 -20 18 -13 6 -24 7 -24
2 0 -13 -64 -11 -78 3 -9 9 -12 9 -12 -1 0 -7 -9 -11 -22 -9 -14 2 -22 -2 -21
-9 3 -13 -9 -17 -34 -14 -7 1 -13 -3 -13 -9 0 -6 -19 -9 -46 -8 -40 3 -49 -1
-64 -22 -18 -25 -171 -278 -684 -1133 l-257 -427 -79 0 -79 0 151 249 150 250
-140 198 c-187 266 -322 467 -316 472 5 5 31 -22 71 -75 12 -16 29 -38 38 -49
16 -20 16 -20 6 2 -18 36 -13 35 48 -7 33 -22 65 -40 70 -40 6 0 11 -4 11 -10
0 -5 5 -10 10 -10 20 0 77 -66 174 -200 54 -74 101 -136 105 -138 7 -2 111
167 111 181 0 3 -83 121 -185 261 -101 141 -181 256 -177 256 4 0 -2 7 -12 15
-11 8 -16 15 -10 15 5 0 -2 9 -16 20 -14 10 -22 22 -18 26 4 3 27 -12 50 -34
53 -50 224 -182 236 -182 5 0 19 -12 33 -26 13 -15 42 -38 64 -52 22 -14 44
-31 48 -38 4 -8 13 -14 18 -14 6 0 -6 24 -27 53 -251 348 -582 816 -587 829
-4 11 17 2 63 -28 38 -24 71 -44 74 -44 11 0 186 -132 186 -140 0 -20 265
-393 282 -398 11 -2 18 -12 16 -21 -1 -9 27 -63 63 -119 l67 -103 36 58 c20
32 32 59 26 61 -5 2 -60 76 -122 165 -108 156 -156 224 -198 277 -11 14 -34
53 -52 88 -18 34 -36 62 -40 62 -12 0 -10 28 2 35 17 11 117 -100 225 -250 56
-77 129 -179 164 -227 35 -49 65 -88 67 -88 2 0 12 17 23 39 l20 38 -24 23
c-14 13 -25 27 -25 32 0 5 -47 57 -105 116 -112 116 -161 176 -233 291 l-46
74 23 18 c12 10 20 23 17 28 -3 5 1 14 9 21 12 10 20 7 44 -12 17 -12 30 -29
30 -37 1 -8 7 -19 15 -25 34 -28 161 -183 246 -301 51 -71 96 -133 100 -137 3
-5 44 56 90 134 59 100 83 151 82 170 -1 16 1 28 5 27 23 -4 35 5 54 42 11 23
16 38 10 35 -5 -4 -44 46 -86 109 -41 64 -82 118 -90 121 -20 8 -107 120 -129
167 -16 36 -19 37 -35 23 -21 -19 -52 -21 -69 -4 -17 17 -15 26 15 54 l26 24
-19 28 c-38 51 -82 137 -77 150 6 17 29 15 61 -5 l27 -18 -32 56 c-18 31 -29
60 -25 64 4 4 2 5 -3 3 -14 -4 -43 25 -108 113 -92 124 -140 208 -127 224 18
22 2 83 -24 87 -13 2 -22 11 -24 26 -3 17 1 22 21 22 18 0 37 -18 81 -79z m26
-234 c0 -6 20 -40 45 -76 24 -36 47 -78 50 -92 6 -24 4 -26 -17 -22 -13 2 -33
19 -45 36 -12 18 -43 61 -68 97 -25 36 -53 75 -61 87 -19 26 -35 89 -25 98 7
8 121 -113 121 -128z m3959 -215 c18 -10 44 -36 56 -59 l23 -41 -23 -78 c-12
-44 -66 -221 -118 -394 -305 -1005 -377 -1264 -377 -1349 0 -41 31 -61 97 -61
39 0 53 4 53 14 0 8 9 34 19 59 14 33 27 47 51 55 24 9 32 8 36 -2 4 -10 14
-11 43 -3 29 8 47 7 72 -3 42 -18 106 -74 125 -112 14 -27 16 -27 77 -22 144
12 334 36 464 58 76 13 151 22 167 19 37 -7 91 -63 99 -101 5 -23 -14 -105
-67 -289 l-73 -258 -73 -3 c-66 -3 -72 -1 -68 15 3 10 36 125 73 256 37 130
66 239 64 242 -3 2 -54 -5 -114 -16 -311 -56 -714 -75 -956 -45 -123 15 -157
32 -201 96 -29 43 -30 48 -24 120 8 95 70 339 175 689 45 150 80 278 77 285
-2 6 -5 4 -5 -4 -1 -8 -11 -21 -23 -29 -13 -7 -20 -10 -16 -6 5 5 -2 13 -15
20 -18 10 -27 8 -51 -9 -16 -11 -27 -16 -24 -10 4 5 -5 14 -18 21 -13 6 -24 8
-24 5 0 -4 -11 -12 -25 -19 -14 -6 -23 -8 -21 -4 2 3 -7 11 -20 18 -13 6 -24
8 -24 5 0 -4 -11 -12 -25 -19 -14 -6 -23 -8 -21 -4 2 3 -7 11 -20 18 -13 6
-24 7 -24 2 0 -13 -64 -11 -78 3 -9 9 -12 9 -12 0 0 -15 -66 -16 -75 -2 -4 6
-12 4 -21 -5 -13 -13 -20 -13 -47 -1 -27 11 -35 11 -45 -1 -10 -10 -18 -10
-32 -3 -16 9 -20 7 -20 -5 0 -8 -7 -15 -15 -15 -8 0 -15 -5 -15 -10 0 -6 -16
-9 -37 -8 l-37 3 -29 -90 c-60 -189 -210 -725 -233 -835 -57 -272 -37 -464 61
-610 l34 -50 -83 0 -83 0 -32 69 c-17 38 -39 102 -47 143 -18 87 -20 275 -3
373 7 40 13 185 14 335 2 331 2 322 21 346 8 10 13 13 9 7 -4 -9 1 -13 15 -13
16 0 20 -5 16 -15 -3 -9 0 -15 9 -15 8 0 15 -3 15 -7 0 -5 12 -13 26 -20 19
-9 26 -9 29 0 3 7 29 93 59 192 112 374 339 1101 353 1128 8 15 28 37 46 47
30 19 53 20 457 20 391 0 428 -1 459 -18z m-4445 -65 c3 3 6 2 6 -4 0 -5 16
-27 36 -49 51 -56 94 -124 94 -150 0 -15 24 -44 75 -90 41 -37 75 -71 75 -75
0 -4 -18 -14 -40 -23 -41 -16 -41 -16 -65 11 -24 28 -38 53 -49 87 -4 10 -12
16 -21 13 -19 -8 -65 46 -120 142 -25 44 -52 85 -60 91 -15 13 -22 55 -7 46 4
-2 14 -1 22 4 8 5 21 5 31 0 9 -5 19 -6 23 -3z m1986 -2312 l0 -195 -70 0 -70
0 0 130 0 130 -294 0 -295 0 -73 -130 -73 -129 -78 -1 -79 0 20 33 c11 17 61
105 111 195 l92 162 405 0 404 0 0 -195z m3728 152 c23 -65 7 -148 -44 -214
-27 -36 -117 -93 -147 -93 -10 0 -15 -4 -12 -10 3 -5 -2 -11 -12 -12 -63 -5
-71 -4 -67 7 3 7 -14 19 -40 29 -57 22 -61 29 -42 66 8 17 11 28 7 25 -5 -2
-1 11 8 30 20 42 43 44 95 8 l39 -26 24 29 c12 16 23 34 23 39 0 6 13 18 30
27 16 9 36 33 44 52 8 20 19 36 25 36 5 0 13 9 16 20 10 32 39 24 53 -13z
m-5856 -409 c-21 -35 -44 -73 -51 -85 l-12 -23 413 0 413 0 46 83 46 82 78 3
77 3 -38 -68 c-78 -141 -110 -188 -143 -210 l-34 -23 -446 0 c-424 0 -448 1
-478 20 -77 47 -87 120 -28 218 l37 62 79 0 79 0 -38 -62z m1888 -23 l0 -85
363 2 362 3 3 83 3 82 66 0 65 0 -4 -103 c-4 -115 -15 -144 -71 -177 -30 -19
-53 -20 -428 -20 -395 0 -396 0 -430 23 -53 35 -69 77 -69 185 l0 92 70 0 70
0 0 -85z"/>
<path d="M2361 3248 l-91 -163 86 -3 c48 -2 89 -1 91 2 7 6 17 326 10 326 -3
0 -46 -73 -96 -162z"/>
</g>
</svg>
